<svg width="110" height="28" viewBox="0 0 110 28" fill="none" xmlns="http://www.w3.org/2000/svg">
<path d="M45.9811 28C43.0164 28 40.5998 27.1243 38.7313 25.3728C36.8753 23.6213 35.9473 21.2879 35.9473 18.3728V17.8689C35.9473 15.9135 36.3397 14.168 37.1244 12.6324C37.9092 11.0848 39.0178 9.89717 40.4503 9.06941C41.8953 8.22965 43.5396 7.80977 45.3832 7.80977C48.1486 7.80977 50.3222 8.64953 51.9042 10.329C53.4987 12.0086 54.2959 14.3899 54.2959 17.473V19.5964H41.422C41.5964 20.868 42.1195 21.8877 42.9915 22.6555C43.8759 23.4233 44.9908 23.8072 46.3361 23.8072C48.4164 23.8072 50.042 23.0814 51.2129 21.6298L53.8662 24.491C53.0565 25.5947 51.9603 26.4584 50.5776 27.0823C49.1949 27.6941 47.6627 28 45.9811 28ZM45.3645 12.0206C44.2932 12.0206 43.4213 12.3685 42.7486 13.0643C42.0884 13.7601 41.6649 14.7558 41.478 16.0514H48.9894V15.6375C48.9645 14.4859 48.6406 13.5981 48.0178 12.9743C47.3949 12.3385 46.5105 12.0206 45.3645 12.0206Z" fill="#111828"/>
<path d="M64.9912 27.6401H59.5725V0H64.9912V27.6401Z" fill="#111828"/>
<path d="M83.0857 27.6401C82.8366 27.1722 82.656 26.5904 82.5439 25.8946C81.2359 27.2982 79.5356 28 77.4429 28C75.4622 28 73.818 27.4482 72.51 26.3445C71.2145 25.2408 70.5668 23.8492 70.5668 22.1697C70.5668 20.1063 71.3578 18.5227 72.9398 17.419C74.5342 16.3153 76.8325 15.7575 79.8345 15.7455H82.3196V14.6298C82.3196 13.7301 82.0767 13.0103 81.5909 12.4704C81.1176 11.9306 80.3639 11.6607 79.33 11.6607C78.4207 11.6607 77.7044 11.8706 77.1813 12.2905C76.6705 12.7104 76.4152 13.2862 76.4152 14.018H71.0152C71.0152 12.8903 71.3765 11.8466 72.099 10.8869C72.8214 9.92716 73.8429 9.17738 75.1633 8.63753C76.4837 8.08569 77.966 7.80977 79.6103 7.80977C82.1016 7.80977 84.076 8.4156 85.5335 9.62725C87.0033 10.8269 87.7383 12.5184 87.7383 14.7018V23.1414C87.7507 24.9889 88.0186 26.3865 88.5417 27.3342V27.6401H83.0857ZM78.62 24.0231C79.4172 24.0231 80.1522 23.8552 80.8248 23.5193C81.4975 23.1714 81.9958 22.7095 82.3196 22.1337V18.7866H80.3017C77.5986 18.7866 76.1598 19.6864 75.9854 21.4859L75.9667 21.7918C75.9667 22.4396 76.2034 22.9734 76.6768 23.3933C77.1501 23.8132 77.7979 24.0231 78.62 24.0231Z" fill="#111828"/>
<path d="M104.749 22.2596C104.749 21.6238 104.419 21.126 103.759 20.7661C103.111 20.3942 102.065 20.0643 100.62 19.7764C95.8114 18.8046 93.4073 16.8372 93.4073 13.874C93.4073 12.1465 94.1485 10.7069 95.6308 9.55527C97.1256 8.3916 99.0751 7.80977 101.479 7.80977C104.045 7.80977 106.094 8.3916 107.627 9.55527C109.171 10.7189 109.944 12.2305 109.944 14.09H104.544C104.544 13.3462 104.294 12.7344 103.796 12.2545C103.298 11.7626 102.519 11.5167 101.461 11.5167C100.551 11.5167 99.8474 11.7147 99.3491 12.1105C98.8509 12.5064 98.6017 13.0103 98.6017 13.6221C98.6017 14.1979 98.882 14.6658 99.4425 15.0257C100.016 15.3736 100.975 15.6795 102.32 15.9434C103.665 16.1954 104.799 16.4833 105.721 16.8072C108.573 17.8149 110 19.5604 110 22.0437C110 23.8192 109.209 25.2588 107.627 26.3625C106.045 27.4542 104.002 28 101.498 28C99.8038 28 98.2965 27.7121 96.9761 27.1362C95.6682 26.5484 94.6405 25.7506 93.8931 24.7429C93.1457 23.7232 92.772 22.6255 92.772 21.4499H97.8917C97.9415 22.3736 98.2965 23.0814 98.9567 23.5733C99.6169 24.0651 100.501 24.3111 101.61 24.3111C102.644 24.3111 103.422 24.1251 103.946 23.7532C104.481 23.3693 104.749 22.8715 104.749 22.2596Z" fill="#111828"/>
<path d="M20.6455 18.6828V18.1058L20.7743 17.7666C27.0271 18.4125 28.3532 22.9338 28.3532 27.6396H34.5098C34.5098 19.7966 32.3406 17.5035 26.2694 13.9835C31.2786 12.4562 34.2257 6.5672 34.2257 1.40002H27.8796C27.8796 6.5672 25.5116 10.8463 20.7743 11.9535V1.40002H15.0771V18.1643L15.0685 19.1474C14.931 22.1537 13.349 23.6568 10.3227 23.6568C8.83045 23.6568 7.65881 23.2663 6.80783 22.4854C5.96919 21.6924 5.54987 20.4369 5.54987 18.7189V1.40002H0V18.8811C0.0369991 21.7165 0.980476 23.9451 2.83043 25.5671C4.68039 27.189 7.17783 28 10.3227 28C13.517 28 16.0329 27.165 17.8706 25.495C19.7205 23.825 20.6455 21.5543 20.6455 18.6828Z" fill="#2950D8"/>
</svg>
