<svg width="100" height="100" viewBox="0 0 100 100" fill="none" xmlns="http://www.w3.org/2000/svg">
<path d="M49.4528 0.547058C37.2298 0.547058 26.0425 4.98143 17.412 12.3295L11.0503 81.1607C20.1175 92.3215 33.9524 99.4529 49.4528 99.4529C76.7649 99.4529 98.9058 77.3121 98.9058 50C98.9058 22.6879 76.7649 0.547058 49.4528 0.547058Z" fill="#8EA7FF"/>
<path d="M38.9508 16.0096H13.5352C5.14629 24.8713 0 36.8342 0 50C0 61.8117 4.14336 72.6541 11.0527 81.1588H47.0842V24.1431C47.0842 19.6512 43.4428 16.0096 38.9508 16.0096Z" fill="#4267E9"/>
<path d="M97.266 81.1588H57.4373L49.2461 78.6631L47.0843 24.1416C47.0843 19.6504 50.7252 16.0094 55.2166 16.0094H97.2658C98.7759 16.0094 100 17.2336 100 18.7435V78.4242C100 79.9346 98.7759 81.1588 97.266 81.1588Z" fill="#4267E9"/>
<path d="M65.5695 16.0096H55.2166C50.7254 16.0096 47.0843 19.6504 47.0843 24.1418V81.1588H57.4373V24.1418C57.4373 19.6506 61.0783 16.0096 65.5695 16.0096Z" fill="#163AB9"/>
<path d="M36.3932 12.3318H17.4141C14.7504 14.5996 12.3303 17.1445 10.1983 19.9222C9.70374 20.5666 7.86253 48.917 7.39964 49.5857L10.1369 75.9047H47.1227V23.0615C47.1227 17.1357 42.319 12.3318 36.3932 12.3318Z" fill="#F9FAFC"/>
<path d="M0 50C0 59.499 2.68047 68.3709 7.32285 75.9049H10.1373V20.0045C3.77871 28.3242 0 38.7199 0 50H0Z" fill="#B1C3FF"/>
<path d="M57.4373 75.9049H94.3843V12.3318H67.1949L63.6484 13.3281L60.1019 12.3318C55.2873 12.3318 53.8537 16.3972 53.4853 21.1004C53.3537 22.781 53.3763 24.4703 53.5089 26.151L57.4373 75.9049Z" fill="white"/>
<path d="M61.7923 13.5328L60.1017 12.3318H57.7751C51.8494 12.3318 47.0455 17.1355 47.0455 23.0615V75.9049H57.4371V23.0615C57.4371 20.0986 58.3951 17.4162 60.0937 15.4746C61.7923 13.5328 61.7923 13.5328 61.7923 13.5328Z" fill="#B1C3FF"/>
<path d="M36.0843 62.018H6.21765C5.07409 62.018 4.14714 61.091 4.14714 59.9475C4.14714 58.8039 5.07409 57.877 6.21765 57.877H36.0841C37.2276 57.877 38.1546 58.8039 38.1546 59.9475C38.1548 61.091 37.2278 62.018 36.0843 62.018Z" fill="#B1C3FF"/>
<path d="M36.0843 54.5121H6.21765C5.07409 54.5121 4.14714 53.5852 4.14714 52.4416C4.14714 51.298 5.07409 50.3711 6.21765 50.3711H36.0841C37.2276 50.3711 38.1546 51.298 38.1546 52.4416C38.1548 53.5852 37.2278 54.5121 36.0843 54.5121Z" fill="#B1C3FF"/>
<path d="M36.0843 47.0064H6.21765C5.07409 47.0064 4.14714 46.0795 4.14714 44.9359C4.14714 43.7924 5.07409 42.8654 6.21765 42.8654H36.0841C37.2276 42.8654 38.1546 43.7924 38.1546 44.9359C38.1548 46.0793 37.2278 47.0064 36.0843 47.0064Z" fill="#B1C3FF"/>
<path d="M36.0843 39.5006H6.21765C5.07409 39.5006 4.14714 38.5736 4.14714 37.4301C4.14714 36.2865 5.07409 35.3596 6.21765 35.3596H36.0841C37.2276 35.3596 38.1546 36.2865 38.1546 37.4301C38.1548 38.5734 37.2278 39.5006 36.0843 39.5006Z" fill="#B1C3FF"/>
<path d="M36.0843 31.9947H6.21765C5.07409 31.9947 4.14714 31.0678 4.14714 29.9242C4.14714 28.7807 5.07409 27.8537 6.21765 27.8537H36.0841C37.2276 27.8537 38.1546 28.7807 38.1546 29.9242C38.1548 31.0676 37.2278 31.9947 36.0843 31.9947Z" fill="#B1C3FF"/>
<path d="M82.749 62.018H52.8824C51.7389 62.018 50.8119 61.091 50.8119 59.9475C50.8119 58.8039 51.7389 57.877 52.8824 57.877H82.749C83.8926 57.877 84.8196 58.8039 84.8196 59.9475C84.8196 61.091 83.8926 62.018 82.749 62.018Z" fill="#B1C3FF"/>
<path d="M82.749 54.5121H52.8824C51.7389 54.5121 50.8119 53.5852 50.8119 52.4416C50.8119 51.298 51.7389 50.3711 52.8824 50.3711H82.749C83.8926 50.3711 84.8196 51.298 84.8196 52.4416C84.8196 53.5852 83.8926 54.5121 82.749 54.5121Z" fill="#B1C3FF"/>
<path d="M82.749 47.0064H52.8824C51.7389 47.0064 50.8119 46.0795 50.8119 44.9359C50.8119 43.7924 51.7389 42.8654 52.8824 42.8654H82.749C83.8926 42.8654 84.8196 43.7924 84.8196 44.9359C84.8196 46.0793 83.8926 47.0064 82.749 47.0064Z" fill="#B1C3FF"/>
<path d="M82.749 39.5006H52.8824C51.7389 39.5006 50.8119 38.5736 50.8119 37.4301C50.8119 36.2865 51.7389 35.3596 52.8824 35.3596H82.749C83.8926 35.3596 84.8196 36.2865 84.8196 37.4301C84.8196 38.5734 83.8926 39.5006 82.749 39.5006Z" fill="#B1C3FF"/>
<path d="M82.749 31.9947H52.8824C51.7389 31.9947 50.8119 31.0678 50.8119 29.9242C50.8119 28.7807 51.7389 27.8537 52.8824 27.8537H82.749C83.8926 27.8537 84.8196 28.7807 84.8196 29.9242C84.8196 31.0676 83.8926 31.9947 82.749 31.9947Z" fill="#B1C3FF"/>
<path d="M67.1946 87.4709L63.6481 86.0215L60.1016 87.4709V12.3318H67.1946V87.4709Z" fill="#032188"/>
</svg>
