<svg width="100" height="100" viewBox="0 0 100 100" fill="none" xmlns="http://www.w3.org/2000/svg">
<g clip-path="url(#clip0)">
<path d="M98.4496 62.3767C98.4959 62.1983 98.5404 62.0186 98.5845 61.8388C98.541 62.0186 98.4953 62.1977 98.4496 62.3767Z" fill="#BFE5FE"/>
<path d="M50.0001 0C30.7587 0 18.9071 10.8524 18.8744 10.8708C18.1318 14.2984 16.8403 19.2727 16.8403 22.9227C16.8403 50.537 40.1271 72.9172 67.7414 72.9172C79.5095 72.9172 90.3216 67.438 98.8628 60.6351C98.8977 60.422 100 56.0318 100 50C100 22.3857 77.6144 0 50.0001 0V0Z" fill="#B1C3FF"/>
<path d="M67.7371 71.5057C40.1228 71.5057 17.7371 49.12 17.7371 21.5057C17.7371 17.8557 18.1318 14.2984 18.8743 10.8706C18.8731 10.8716 18.8722 10.8725 18.871 10.8733C7.37196 20.0343 0 34.1553 0 50C0 67.2588 8.74451 82.4755 22.0445 91.4608L31.0814 96.2969C36.9173 98.6841 43.3049 100 50 100C56.6955 100 63.083 98.6837 68.9184 96.2961L77.6629 91.6543C87.8153 84.8965 95.3555 74.5247 98.4496 62.3767C98.4953 62.1976 98.541 62.0186 98.5845 61.8388C98.6053 61.7533 98.7939 60.9522 98.8626 60.6351C90.3216 67.438 79.5049 71.5057 67.7371 71.5057Z" fill="#8EA7FF"/>
<path d="M69.3926 80.2427H57.2845L68.9177 96.2937C71.9983 95.0331 74.9259 93.4757 77.663 91.6539L69.3926 80.2427Z" fill="#4267E9"/>
<path d="M30.4199 80.5018L22.3375 91.6535C25.0747 93.4751 28.0018 95.0332 31.0828 96.2934L42.5279 80.5018H30.4199Z" fill="#4267E9"/>
<path d="M42.0112 81.2147L49.1314 71.3904H37.0234L29.9032 81.2147H42.0112Z" fill="#163AB9"/>
<path d="M56.8613 62.9526L50.0001 53.4855L43.1389 62.9526H56.8613Z" fill="#3F67CD"/>
<path d="M70.0969 81.2147L62.9767 71.3904H50.8687L57.9889 81.2147H70.0969Z" fill="#163AB9"/>
<path d="M47.2408 9.6647H58.402V18.7959H47.2408V9.6647Z" fill="#2045CA"/>
<path d="M43.3355 9.6647H48.3733V18.7959H43.3355V9.6647Z" fill="#1031A5"/>
<path d="M35.3922 24.0267H87.3387V64.4453H35.3922V24.0267Z" fill="white"/>
<path d="M36.8633 45.6937V24.0267H12.6612V75.9731H87.3386V62.4318H53.6014C44.3572 62.432 36.8633 54.9378 36.8633 45.6937Z" fill="white"/>
<path d="M32.4325 15.1045H91.9715V24.0267H32.4325V15.1045Z" fill="#4267E9"/>
<path d="M8.02829 15.1045H33.8989V24.0267H8.02829V15.1045Z" fill="#163AB9"/>
</g>
<defs>
<clipPath id="clip0">
<rect width="100" height="100" fill="white"/>
</clipPath>
</defs>
</svg>
