<svg width="200" height="200" viewBox="0 0 200 200" fill="none" xmlns="http://www.w3.org/2000/svg">
<g clip-path="url(#clip0)">
<path d="M147.939 200H166.336L145.363 129.178H126.967L138.238 167.24H61.7619L73.0339 129.178H54.6378L33.665 200H52.0612L57.8135 180.573H142.187L147.939 200Z" fill="#D1D4DB"/>
<path d="M0.00195312 136.763V10.6668C0.00195312 4.77563 4.77759 0 10.6683 0H189.334C195.225 0 200.001 4.77563 200.001 10.6668V136.763C200.001 142.654 195.225 147.43 189.334 147.43H10.6683C4.77759 147.43 0.00195312 142.654 0.00195312 136.763Z" fill="#9CA2AE"/>
<path d="M187.069 12.9363H12.9365V134.496H187.069V12.9363Z" fill="#D1D4DB"/>
<path d="M21.907 12.9363H12.9365V134.496H21.907V12.9363Z" fill="#4C5564"/>
<path d="M187.066 12.9451H178.096V134.505H187.066V12.9451Z" fill="#4C5564"/>
<path d="M177.775 24.9509H21.8351L12.9355 12.9358H187.064L177.775 24.9509Z" fill="#6B7380"/>
<path d="M177.775 122.479H21.8351L12.9355 134.494H187.064L177.775 122.479Z" fill="#6B7380"/>
<path d="M171.037 111.413H122.851V122.475H171.037V111.413Z" fill="white"/>
</g>
<defs>
<clipPath id="clip0">
<rect width="200" height="200" fill="white"/>
</clipPath>
</defs>
</svg>
